<?xml version="1.0" standalone="no"?>
<!DOCTYPE svg PUBLIC "-//W3C//DTD SVG 20010904//EN"
 "http://www.w3.org/TR/2001/REC-SVG-20010904/DTD/svg10.dtd">
<svg version="1.0" xmlns="http://www.w3.org/2000/svg"
 width="260.000000pt" height="260.000000pt" viewBox="0 0 260.000000 260.000000"
 preserveAspectRatio="xMidYMid meet">
<metadata>
Created by potrace 1.11, written by Peter Selinger 2001-2013
</metadata>
<g transform="translate(0.000000,260.000000) scale(0.100000,-0.100000)"
fill="#000000" stroke="none">
<path d="M1187 2141 c-115 -25 -244 -68 -304 -100 l-48 -26 -32 -155 c-18 -85
-32 -161 -33 -167 0 -10 26 -13 99 -13 l99 0 6 43 c4 24 20 71 36 106 39 81
67 94 207 95 88 1 105 -2 129 -20 47 -35 67 -70 72 -126 15 -179 -130 -305
-465 -403 -9 -3 -6 -25 9 -82 11 -43 23 -81 27 -85 3 -4 47 2 96 12 122 26
166 25 224 -5 109 -55 181 -190 167 -316 -18 -176 -130 -268 -291 -238 -115
21 -181 76 -287 237 l-62 92 -88 0 c-63 0 -88 -4 -88 -12 0 -30 104 -404 114
-410 22 -15 193 -67 270 -82 406 -81 800 128 832 443 15 144 -64 302 -194 389
-50 33 -83 50 -169 83 -13 5 -23 13 -23 17 0 5 30 27 67 48 86 49 212 173 244
239 36 75 34 172 -5 243 -88 159 -362 246 -609 193z"/>
</g>
</svg>
